<?xml version="1.0" encoding="utf-8"?>
<!DOCTYPE svg PUBLIC "-//W3C//DTD SVG 20010904//EN" "http://www.w3.org/TR/2001/REC-SVG-20010904/DTD/svg10.dtd">
<svg xmlns="http://www.w3.org/2000/svg" xml:space="preserve" xmlns:xlink="http://www.w3.org/1999/xlink" width="990" height="990" viewBox="0 0 990 990">
<defs>
<mask id="qrmask"><g fill="#ffffff">
<g transform="translate(220,44) scale(3.6666666666667)"><rect width="6" height="6"/></g>
<g transform="translate(264,44) scale(3.6666666666667)"><rect width="6" height="6"/></g>
<g transform="translate(286,44) scale(3.6666666666667)"><rect width="6" height="6"/></g>
<g transform="translate(418,44) scale(3.6666666666667)"><rect width="6" height="6"/></g>
<g transform="translate(440,44) scale(3.6666666666667)"><rect width="6" height="6"/></g>
<g transform="translate(462,44) scale(3.6666666666667)"><rect width="6" height="6"/></g>
<g transform="translate(484,44) scale(3.6666666666667)"><rect width="6" height="6"/></g>
<g transform="translate(506,44) scale(3.6666666666667)"><rect width="6" height="6"/></g>
<g transform="translate(550,44) scale(3.6666666666667)"><rect width="6" height="6"/></g>
<g transform="translate(572,44) scale(3.6666666666667)"><rect width="6" height="6"/></g>
<g transform="translate(594,44) scale(3.6666666666667)"><rect width="6" height="6"/></g>
<g transform="translate(616,44) scale(3.6666666666667)"><rect width="6" height="6"/></g>
<g transform="translate(660,44) scale(3.6666666666667)"><rect width="6" height="6"/></g>
<g transform="translate(704,44) scale(3.6666666666667)"><rect width="6" height="6"/></g>
<g transform="translate(726,44) scale(3.6666666666667)"><rect width="6" height="6"/></g>
<g transform="translate(748,44) scale(3.6666666666667)"><rect width="6" height="6"/></g>
<g transform="translate(220,66) scale(3.6666666666667)"><rect width="6" height="6"/></g>
<g transform="translate(242,66) scale(3.6666666666667)"><rect width="6" height="6"/></g>
<g transform="translate(308,66) scale(3.6666666666667)"><rect width="6" height="6"/></g>
<g transform="translate(352,66) scale(3.6666666666667)"><rect width="6" height="6"/></g>
<g transform="translate(418,66) scale(3.6666666666667)"><rect width="6" height="6"/></g>
<g transform="translate(506,66) scale(3.6666666666667)"><rect width="6" height="6"/></g>
<g transform="translate(528,66) scale(3.6666666666667)"><rect width="6" height="6"/></g>
<g transform="translate(550,66) scale(3.6666666666667)"><rect width="6" height="6"/></g>
<g transform="translate(594,66) scale(3.6666666666667)"><rect width="6" height="6"/></g>
<g transform="translate(616,66) scale(3.6666666666667)"><rect width="6" height="6"/></g>
<g transform="translate(638,66) scale(3.6666666666667)"><rect width="6" height="6"/></g>
<g transform="translate(704,66) scale(3.6666666666667)"><rect width="6" height="6"/></g>
<g transform="translate(748,66) scale(3.6666666666667)"><rect width="6" height="6"/></g>
<g transform="translate(220,88) scale(3.6666666666667)"><rect width="6" height="6"/></g>
<g transform="translate(264,88) scale(3.6666666666667)"><rect width="6" height="6"/></g>
<g transform="translate(308,88) scale(3.6666666666667)"><rect width="6" height="6"/></g>
<g transform="translate(352,88) scale(3.6666666666667)"><rect width="6" height="6"/></g>
<g transform="translate(418,88) scale(3.6666666666667)"><rect width="6" height="6"/></g>
<g transform="translate(462,88) scale(3.6666666666667)"><rect width="6" height="6"/></g>
<g transform="translate(484,88) scale(3.6666666666667)"><rect width="6" height="6"/></g>
<g transform="translate(528,88) scale(3.6666666666667)"><rect width="6" height="6"/></g>
<g transform="translate(594,88) scale(3.6666666666667)"><rect width="6" height="6"/></g>
<g transform="translate(638,88) scale(3.6666666666667)"><rect width="6" height="6"/></g>
<g transform="translate(660,88) scale(3.6666666666667)"><rect width="6" height="6"/></g>
<g transform="translate(704,88) scale(3.6666666666667)"><rect width="6" height="6"/></g>
<g transform="translate(726,88) scale(3.6666666666667)"><rect width="6" height="6"/></g>
<g transform="translate(242,110) scale(3.6666666666667)"><rect width="6" height="6"/></g>
<g transform="translate(308,110) scale(3.6666666666667)"><rect width="6" height="6"/></g>
<g transform="translate(352,110) scale(3.6666666666667)"><rect width="6" height="6"/></g>
<g transform="translate(440,110) scale(3.6666666666667)"><rect width="6" height="6"/></g>
<g transform="translate(506,110) scale(3.6666666666667)"><rect width="6" height="6"/></g>
<g transform="translate(572,110) scale(3.6666666666667)"><rect width="6" height="6"/></g>
<g transform="translate(616,110) scale(3.6666666666667)"><rect width="6" height="6"/></g>
<g transform="translate(638,110) scale(3.6666666666667)"><rect width="6" height="6"/></g>
<g transform="translate(682,110) scale(3.6666666666667)"><rect width="6" height="6"/></g>
<g transform="translate(748,110) scale(3.6666666666667)"><rect width="6" height="6"/></g>
<g transform="translate(264,132) scale(3.6666666666667)"><rect width="6" height="6"/></g>
<g transform="translate(352,132) scale(3.6666666666667)"><rect width="6" height="6"/></g>
<g transform="translate(462,132) scale(3.6666666666667)"><rect width="6" height="6"/></g>
<g transform="translate(484,132) scale(3.6666666666667)"><rect width="6" height="6"/></g>
<g transform="translate(506,132) scale(3.6666666666667)"><rect width="6" height="6"/></g>
<g transform="translate(528,132) scale(3.6666666666667)"><rect width="6" height="6"/></g>
<g transform="translate(572,132) scale(3.6666666666667)"><rect width="6" height="6"/></g>
<g transform="translate(594,132) scale(3.6666666666667)"><rect width="6" height="6"/></g>
<g transform="translate(660,132) scale(3.6666666666667)"><rect width="6" height="6"/></g>
<g transform="translate(726,132) scale(3.6666666666667)"><rect width="6" height="6"/></g>
<g transform="translate(748,132) scale(3.6666666666667)"><rect width="6" height="6"/></g>
<g transform="translate(220,154) scale(3.6666666666667)"><rect width="6" height="6"/></g>
<g transform="translate(242,154) scale(3.6666666666667)"><rect width="6" height="6"/></g>
<g transform="translate(264,154) scale(3.6666666666667)"><rect width="6" height="6"/></g>
<g transform="translate(352,154) scale(3.6666666666667)"><rect width="6" height="6"/></g>
<g transform="translate(396,154) scale(3.6666666666667)"><rect width="6" height="6"/></g>
<g transform="translate(484,154) scale(3.6666666666667)"><rect width="6" height="6"/></g>
<g transform="translate(506,154) scale(3.6666666666667)"><rect width="6" height="6"/></g>
<g transform="translate(528,154) scale(3.6666666666667)"><rect width="6" height="6"/></g>
<g transform="translate(550,154) scale(3.6666666666667)"><rect width="6" height="6"/></g>
<g transform="translate(594,154) scale(3.6666666666667)"><rect width="6" height="6"/></g>
<g transform="translate(638,154) scale(3.6666666666667)"><rect width="6" height="6"/></g>
<g transform="translate(220,176) scale(3.6666666666667)"><rect width="6" height="6"/></g>
<g transform="translate(264,176) scale(3.6666666666667)"><rect width="6" height="6"/></g>
<g transform="translate(308,176) scale(3.6666666666667)"><rect width="6" height="6"/></g>
<g transform="translate(352,176) scale(3.6666666666667)"><rect width="6" height="6"/></g>
<g transform="translate(396,176) scale(3.6666666666667)"><rect width="6" height="6"/></g>
<g transform="translate(440,176) scale(3.6666666666667)"><rect width="6" height="6"/></g>
<g transform="translate(484,176) scale(3.6666666666667)"><rect width="6" height="6"/></g>
<g transform="translate(528,176) scale(3.6666666666667)"><rect width="6" height="6"/></g>
<g transform="translate(572,176) scale(3.6666666666667)"><rect width="6" height="6"/></g>
<g transform="translate(616,176) scale(3.6666666666667)"><rect width="6" height="6"/></g>
<g transform="translate(660,176) scale(3.6666666666667)"><rect width="6" height="6"/></g>
<g transform="translate(704,176) scale(3.6666666666667)"><rect width="6" height="6"/></g>
<g transform="translate(748,176) scale(3.6666666666667)"><rect width="6" height="6"/></g>
<g transform="translate(220,198) scale(3.6666666666667)"><rect width="6" height="6"/></g>
<g transform="translate(242,198) scale(3.6666666666667)"><rect width="6" height="6"/></g>
<g transform="translate(264,198) scale(3.6666666666667)"><rect width="6" height="6"/></g>
<g transform="translate(330,198) scale(3.6666666666667)"><rect width="6" height="6"/></g>
<g transform="translate(352,198) scale(3.6666666666667)"><rect width="6" height="6"/></g>
<g transform="translate(374,198) scale(3.6666666666667)"><rect width="6" height="6"/></g>
<g transform="translate(484,198) scale(3.6666666666667)"><rect width="6" height="6"/></g>
<g transform="translate(572,198) scale(3.6666666666667)"><rect width="6" height="6"/></g>
<g transform="translate(594,198) scale(3.6666666666667)"><rect width="6" height="6"/></g>
<g transform="translate(638,198) scale(3.6666666666667)"><rect width="6" height="6"/></g>
<g transform="translate(704,198) scale(3.6666666666667)"><rect width="6" height="6"/></g>
<g transform="translate(726,198) scale(3.6666666666667)"><rect width="6" height="6"/></g>
<g transform="translate(748,198) scale(3.6666666666667)"><rect width="6" height="6"/></g>
<g transform="translate(88,220) scale(3.6666666666667)"><rect width="6" height="6"/></g>
<g transform="translate(110,220) scale(3.6666666666667)"><rect width="6" height="6"/></g>
<g transform="translate(132,220) scale(3.6666666666667)"><rect width="6" height="6"/></g>
<g transform="translate(176,220) scale(3.6666666666667)"><rect width="6" height="6"/></g>
<g transform="translate(220,220) scale(3.6666666666667)"><rect width="6" height="6"/></g>
<g transform="translate(242,220) scale(3.6666666666667)"><rect width="6" height="6"/></g>
<g transform="translate(286,220) scale(3.6666666666667)"><rect width="6" height="6"/></g>
<g transform="translate(308,220) scale(3.6666666666667)"><rect width="6" height="6"/></g>
<g transform="translate(330,220) scale(3.6666666666667)"><rect width="6" height="6"/></g>
<g transform="translate(440,220) scale(3.6666666666667)"><rect width="6" height="6"/></g>
<g transform="translate(462,220) scale(3.6666666666667)"><rect width="6" height="6"/></g>
<g transform="translate(506,220) scale(3.6666666666667)"><rect width="6" height="6"/></g>
<g transform="translate(594,220) scale(3.6666666666667)"><rect width="6" height="6"/></g>
<g transform="translate(638,220) scale(3.6666666666667)"><rect width="6" height="6"/></g>
<g transform="translate(682,220) scale(3.6666666666667)"><rect width="6" height="6"/></g>
<g transform="translate(726,220) scale(3.6666666666667)"><rect width="6" height="6"/></g>
<g transform="translate(748,220) scale(3.6666666666667)"><rect width="6" height="6"/></g>
<g transform="translate(770,220) scale(3.6666666666667)"><rect width="6" height="6"/></g>
<g transform="translate(792,220) scale(3.6666666666667)"><rect width="6" height="6"/></g>
<g transform="translate(814,220) scale(3.6666666666667)"><rect width="6" height="6"/></g>
<g transform="translate(880,220) scale(3.6666666666667)"><rect width="6" height="6"/></g>
<g transform="translate(902,220) scale(3.6666666666667)"><rect width="6" height="6"/></g>
<g transform="translate(924,220) scale(3.6666666666667)"><rect width="6" height="6"/></g>
<g transform="translate(110,242) scale(3.6666666666667)"><rect width="6" height="6"/></g>
<g transform="translate(154,242) scale(3.6666666666667)"><rect width="6" height="6"/></g>
<g transform="translate(220,242) scale(3.6666666666667)"><rect width="6" height="6"/></g>
<g transform="translate(286,242) scale(3.6666666666667)"><rect width="6" height="6"/></g>
<g transform="translate(330,242) scale(3.6666666666667)"><rect width="6" height="6"/></g>
<g transform="translate(352,242) scale(3.6666666666667)"><rect width="6" height="6"/></g>
<g transform="translate(374,242) scale(3.6666666666667)"><rect width="6" height="6"/></g>
<g transform="translate(396,242) scale(3.6666666666667)"><rect width="6" height="6"/></g>
<g transform="translate(418,242) scale(3.6666666666667)"><rect width="6" height="6"/></g>
<g transform="translate(440,242) scale(3.6666666666667)"><rect width="6" height="6"/></g>
<g transform="translate(484,242) scale(3.6666666666667)"><rect width="6" height="6"/></g>
<g transform="translate(506,242) scale(3.6666666666667)"><rect width="6" height="6"/></g>
<g transform="translate(528,242) scale(3.6666666666667)"><rect width="6" height="6"/></g>
<g transform="translate(616,242) scale(3.6666666666667)"><rect width="6" height="6"/></g>
<g transform="translate(660,242) scale(3.6666666666667)"><rect width="6" height="6"/></g>
<g transform="translate(726,242) scale(3.6666666666667)"><rect width="6" height="6"/></g>
<g transform="translate(748,242) scale(3.6666666666667)"><rect width="6" height="6"/></g>
<g transform="translate(770,242) scale(3.6666666666667)"><rect width="6" height="6"/></g>
<g transform="translate(792,242) scale(3.6666666666667)"><rect width="6" height="6"/></g>
<g transform="translate(814,242) scale(3.6666666666667)"><rect width="6" height="6"/></g>
<g transform="translate(836,242) scale(3.6666666666667)"><rect width="6" height="6"/></g>
<g transform="translate(880,242) scale(3.6666666666667)"><rect width="6" height="6"/></g>
<g transform="translate(902,242) scale(3.6666666666667)"><rect width="6" height="6"/></g>
<g transform="translate(924,242) scale(3.6666666666667)"><rect width="6" height="6"/></g>
<g transform="translate(44,264) scale(3.6666666666667)"><rect width="6" height="6"/></g>
<g transform="translate(66,264) scale(3.6666666666667)"><rect width="6" height="6"/></g>
<g transform="translate(88,264) scale(3.6666666666667)"><rect width="6" height="6"/></g>
<g transform="translate(132,264) scale(3.6666666666667)"><rect width="6" height="6"/></g>
<g transform="translate(154,264) scale(3.6666666666667)"><rect width="6" height="6"/></g>
<g transform="translate(176,264) scale(3.6666666666667)"><rect width="6" height="6"/></g>
<g transform="translate(286,264) scale(3.6666666666667)"><rect width="6" height="6"/></g>
<g transform="translate(308,264) scale(3.6666666666667)"><rect width="6" height="6"/></g>
<g transform="translate(330,264) scale(3.6666666666667)"><rect width="6" height="6"/></g>
<g transform="translate(352,264) scale(3.6666666666667)"><rect width="6" height="6"/></g>
<g transform="translate(396,264) scale(3.6666666666667)"><rect width="6" height="6"/></g>
<g transform="translate(418,264) scale(3.6666666666667)"><rect width="6" height="6"/></g>
<g transform="translate(462,264) scale(3.6666666666667)"><rect width="6" height="6"/></g>
<g transform="translate(528,264) scale(3.6666666666667)"><rect width="6" height="6"/></g>
<g transform="translate(550,264) scale(3.6666666666667)"><rect width="6" height="6"/></g>
<g transform="translate(572,264) scale(3.6666666666667)"><rect width="6" height="6"/></g>
<g transform="translate(616,264) scale(3.6666666666667)"><rect width="6" height="6"/></g>
<g transform="translate(638,264) scale(3.6666666666667)"><rect width="6" height="6"/></g>
<g transform="translate(748,264) scale(3.6666666666667)"><rect width="6" height="6"/></g>
<g transform="translate(770,264) scale(3.6666666666667)"><rect width="6" height="6"/></g>
<g transform="translate(792,264) scale(3.6666666666667)"><rect width="6" height="6"/></g>
<g transform="translate(66,286) scale(3.6666666666667)"><rect width="6" height="6"/></g>
<g transform="translate(88,286) scale(3.6666666666667)"><rect width="6" height="6"/></g>
<g transform="translate(154,286) scale(3.6666666666667)"><rect width="6" height="6"/></g>
<g transform="translate(220,286) scale(3.6666666666667)"><rect width="6" height="6"/></g>
<g transform="translate(242,286) scale(3.6666666666667)"><rect width="6" height="6"/></g>
<g transform="translate(374,286) scale(3.6666666666667)"><rect width="6" height="6"/></g>
<g transform="translate(418,286) scale(3.6666666666667)"><rect width="6" height="6"/></g>
<g transform="translate(440,286) scale(3.6666666666667)"><rect width="6" height="6"/></g>
<g transform="translate(462,286) scale(3.6666666666667)"><rect width="6" height="6"/></g>
<g transform="translate(484,286) scale(3.6666666666667)"><rect width="6" height="6"/></g>
<g transform="translate(506,286) scale(3.6666666666667)"><rect width="6" height="6"/></g>
<g transform="translate(594,286) scale(3.6666666666667)"><rect width="6" height="6"/></g>
<g transform="translate(660,286) scale(3.6666666666667)"><rect width="6" height="6"/></g>
<g transform="translate(704,286) scale(3.6666666666667)"><rect width="6" height="6"/></g>
<g transform="translate(726,286) scale(3.6666666666667)"><rect width="6" height="6"/></g>
<g transform="translate(748,286) scale(3.6666666666667)"><rect width="6" height="6"/></g>
<g transform="translate(814,286) scale(3.6666666666667)"><rect width="6" height="6"/></g>
<g transform="translate(858,286) scale(3.6666666666667)"><rect width="6" height="6"/></g>
<g transform="translate(88,308) scale(3.6666666666667)"><rect width="6" height="6"/></g>
<g transform="translate(110,308) scale(3.6666666666667)"><rect width="6" height="6"/></g>
<g transform="translate(132,308) scale(3.6666666666667)"><rect width="6" height="6"/></g>
<g transform="translate(176,308) scale(3.6666666666667)"><rect width="6" height="6"/></g>
<g transform="translate(198,308) scale(3.6666666666667)"><rect width="6" height="6"/></g>
<g transform="translate(220,308) scale(3.6666666666667)"><rect width="6" height="6"/></g>
<g transform="translate(242,308) scale(3.6666666666667)"><rect width="6" height="6"/></g>
<g transform="translate(264,308) scale(3.6666666666667)"><rect width="6" height="6"/></g>
<g transform="translate(286,308) scale(3.6666666666667)"><rect width="6" height="6"/></g>
<g transform="translate(308,308) scale(3.6666666666667)"><rect width="6" height="6"/></g>
<g transform="translate(374,308) scale(3.6666666666667)"><rect width="6" height="6"/></g>
<g transform="translate(396,308) scale(3.6666666666667)"><rect width="6" height="6"/></g>
<g transform="translate(440,308) scale(3.6666666666667)"><rect width="6" height="6"/></g>
<g transform="translate(484,308) scale(3.6666666666667)"><rect width="6" height="6"/></g>
<g transform="translate(550,308) scale(3.6666666666667)"><rect width="6" height="6"/></g>
<g transform="translate(572,308) scale(3.6666666666667)"><rect width="6" height="6"/></g>
<g transform="translate(616,308) scale(3.6666666666667)"><rect width="6" height="6"/></g>
<g transform="translate(638,308) scale(3.6666666666667)"><rect width="6" height="6"/></g>
<g transform="translate(660,308) scale(3.6666666666667)"><rect width="6" height="6"/></g>
<g transform="translate(682,308) scale(3.6666666666667)"><rect width="6" height="6"/></g>
<g transform="translate(704,308) scale(3.6666666666667)"><rect width="6" height="6"/></g>
<g transform="translate(726,308) scale(3.6666666666667)"><rect width="6" height="6"/></g>
<g transform="translate(748,308) scale(3.6666666666667)"><rect width="6" height="6"/></g>
<g transform="translate(858,308) scale(3.6666666666667)"><rect width="6" height="6"/></g>
<g transform="translate(880,308) scale(3.6666666666667)"><rect width="6" height="6"/></g>
<g transform="translate(44,330) scale(3.6666666666667)"><rect width="6" height="6"/></g>
<g transform="translate(66,330) scale(3.6666666666667)"><rect width="6" height="6"/></g>
<g transform="translate(88,330) scale(3.6666666666667)"><rect width="6" height="6"/></g>
<g transform="translate(110,330) scale(3.6666666666667)"><rect width="6" height="6"/></g>
<g transform="translate(154,330) scale(3.6666666666667)"><rect width="6" height="6"/></g>
<g transform="translate(198,330) scale(3.6666666666667)"><rect width="6" height="6"/></g>
<g transform="translate(330,330) scale(3.6666666666667)"><rect width="6" height="6"/></g>
<g transform="translate(396,330) scale(3.6666666666667)"><rect width="6" height="6"/></g>
<g transform="translate(550,330) scale(3.6666666666667)"><rect width="6" height="6"/></g>
<g transform="translate(616,330) scale(3.6666666666667)"><rect width="6" height="6"/></g>
<g transform="translate(638,330) scale(3.6666666666667)"><rect width="6" height="6"/></g>
<g transform="translate(682,330) scale(3.6666666666667)"><rect width="6" height="6"/></g>
<g transform="translate(704,330) scale(3.6666666666667)"><rect width="6" height="6"/></g>
<g transform="translate(726,330) scale(3.6666666666667)"><rect width="6" height="6"/></g>
<g transform="translate(748,330) scale(3.6666666666667)"><rect width="6" height="6"/></g>
<g transform="translate(792,330) scale(3.6666666666667)"><rect width="6" height="6"/></g>
<g transform="translate(814,330) scale(3.6666666666667)"><rect width="6" height="6"/></g>
<g transform="translate(836,330) scale(3.6666666666667)"><rect width="6" height="6"/></g>
<g transform="translate(858,330) scale(3.6666666666667)"><rect width="6" height="6"/></g>
<g transform="translate(880,330) scale(3.6666666666667)"><rect width="6" height="6"/></g>
<g transform="translate(924,330) scale(3.6666666666667)"><rect width="6" height="6"/></g>
<g transform="translate(66,352) scale(3.6666666666667)"><rect width="6" height="6"/></g>
<g transform="translate(88,352) scale(3.6666666666667)"><rect width="6" height="6"/></g>
<g transform="translate(110,352) scale(3.6666666666667)"><rect width="6" height="6"/></g>
<g transform="translate(132,352) scale(3.6666666666667)"><rect width="6" height="6"/></g>
<g transform="translate(154,352) scale(3.6666666666667)"><rect width="6" height="6"/></g>
<g transform="translate(176,352) scale(3.6666666666667)"><rect width="6" height="6"/></g>
<g transform="translate(198,352) scale(3.6666666666667)"><rect width="6" height="6"/></g>
<g transform="translate(220,352) scale(3.6666666666667)"><rect width="6" height="6"/></g>
<g transform="translate(308,352) scale(3.6666666666667)"><rect width="6" height="6"/></g>
<g transform="translate(352,352) scale(3.6666666666667)"><rect width="6" height="6"/></g>
<g transform="translate(374,352) scale(3.6666666666667)"><rect width="6" height="6"/></g>
<g transform="translate(396,352) scale(3.6666666666667)"><rect width="6" height="6"/></g>
<g transform="translate(418,352) scale(3.6666666666667)"><rect width="6" height="6"/></g>
<g transform="translate(462,352) scale(3.6666666666667)"><rect width="6" height="6"/></g>
<g transform="translate(506,352) scale(3.6666666666667)"><rect width="6" height="6"/></g>
<g transform="translate(528,352) scale(3.6666666666667)"><rect width="6" height="6"/></g>
<g transform="translate(638,352) scale(3.6666666666667)"><rect width="6" height="6"/></g>
<g transform="translate(660,352) scale(3.6666666666667)"><rect width="6" height="6"/></g>
<g transform="translate(704,352) scale(3.6666666666667)"><rect width="6" height="6"/></g>
<g transform="translate(748,352) scale(3.6666666666667)"><rect width="6" height="6"/></g>
<g transform="translate(770,352) scale(3.6666666666667)"><rect width="6" height="6"/></g>
<g transform="translate(814,352) scale(3.6666666666667)"><rect width="6" height="6"/></g>
<g transform="translate(858,352) scale(3.6666666666667)"><rect width="6" height="6"/></g>
<g transform="translate(44,374) scale(3.6666666666667)"><rect width="6" height="6"/></g>
<g transform="translate(66,374) scale(3.6666666666667)"><rect width="6" height="6"/></g>
<g transform="translate(110,374) scale(3.6666666666667)"><rect width="6" height="6"/></g>
<g transform="translate(154,374) scale(3.6666666666667)"><rect width="6" height="6"/></g>
<g transform="translate(198,374) scale(3.6666666666667)"><rect width="6" height="6"/></g>
<g transform="translate(286,374) scale(3.6666666666667)"><rect width="6" height="6"/></g>
<g transform="translate(308,374) scale(3.6666666666667)"><rect width="6" height="6"/></g>
<g transform="translate(550,374) scale(3.6666666666667)"><rect width="6" height="6"/></g>
<g transform="translate(638,374) scale(3.6666666666667)"><rect width="6" height="6"/></g>
<g transform="translate(792,374) scale(3.6666666666667)"><rect width="6" height="6"/></g>
<g transform="translate(836,374) scale(3.6666666666667)"><rect width="6" height="6"/></g>
<g transform="translate(858,374) scale(3.6666666666667)"><rect width="6" height="6"/></g>
<g transform="translate(902,374) scale(3.6666666666667)"><rect width="6" height="6"/></g>
<g transform="translate(924,374) scale(3.6666666666667)"><rect width="6" height="6"/></g>
<g transform="translate(66,396) scale(3.6666666666667)"><rect width="6" height="6"/></g>
<g transform="translate(154,396) scale(3.6666666666667)"><rect width="6" height="6"/></g>
<g transform="translate(176,396) scale(3.6666666666667)"><rect width="6" height="6"/></g>
<g transform="translate(198,396) scale(3.6666666666667)"><rect width="6" height="6"/></g>
<g transform="translate(242,396) scale(3.6666666666667)"><rect width="6" height="6"/></g>
<g transform="translate(286,396) scale(3.6666666666667)"><rect width="6" height="6"/></g>
<g transform="translate(374,396) scale(3.6666666666667)"><rect width="6" height="6"/></g>
<g transform="translate(484,396) scale(3.6666666666667)"><rect width="6" height="6"/></g>
<g transform="translate(506,396) scale(3.6666666666667)"><rect width="6" height="6"/></g>
<g transform="translate(550,396) scale(3.6666666666667)"><rect width="6" height="6"/></g>
<g transform="translate(572,396) scale(3.6666666666667)"><rect width="6" height="6"/></g>
<g transform="translate(616,396) scale(3.6666666666667)"><rect width="6" height="6"/></g>
<g transform="translate(638,396) scale(3.6666666666667)"><rect width="6" height="6"/></g>
<g transform="translate(660,396) scale(3.6666666666667)"><rect width="6" height="6"/></g>
<g transform="translate(682,396) scale(3.6666666666667)"><rect width="6" height="6"/></g>
<g transform="translate(748,396) scale(3.6666666666667)"><rect width="6" height="6"/></g>
<g transform="translate(770,396) scale(3.6666666666667)"><rect width="6" height="6"/></g>
<g transform="translate(814,396) scale(3.6666666666667)"><rect width="6" height="6"/></g>
<g transform="translate(880,396) scale(3.6666666666667)"><rect width="6" height="6"/></g>
<g transform="translate(902,396) scale(3.6666666666667)"><rect width="6" height="6"/></g>
<g transform="translate(66,418) scale(3.6666666666667)"><rect width="6" height="6"/></g>
<g transform="translate(88,418) scale(3.6666666666667)"><rect width="6" height="6"/></g>
<g transform="translate(110,418) scale(3.6666666666667)"><rect width="6" height="6"/></g>
<g transform="translate(132,418) scale(3.6666666666667)"><rect width="6" height="6"/></g>
<g transform="translate(286,418) scale(3.6666666666667)"><rect width="6" height="6"/></g>
<g transform="translate(308,418) scale(3.6666666666667)"><rect width="6" height="6"/></g>
<g transform="translate(352,418) scale(3.6666666666667)"><rect width="6" height="6"/></g>
<g transform="translate(374,418) scale(3.6666666666667)"><rect width="6" height="6"/></g>
<g transform="translate(418,418) scale(3.6666666666667)"><rect width="6" height="6"/></g>
<g transform="translate(440,418) scale(3.6666666666667)"><rect width="6" height="6"/></g>
<g transform="translate(462,418) scale(3.6666666666667)"><rect width="6" height="6"/></g>
<g transform="translate(506,418) scale(3.6666666666667)"><rect width="6" height="6"/></g>
<g transform="translate(660,418) scale(3.6666666666667)"><rect width="6" height="6"/></g>
<g transform="translate(726,418) scale(3.6666666666667)"><rect width="6" height="6"/></g>
<g transform="translate(748,418) scale(3.6666666666667)"><rect width="6" height="6"/></g>
<g transform="translate(792,418) scale(3.6666666666667)"><rect width="6" height="6"/></g>
<g transform="translate(814,418) scale(3.6666666666667)"><rect width="6" height="6"/></g>
<g transform="translate(836,418) scale(3.6666666666667)"><rect width="6" height="6"/></g>
<g transform="translate(858,418) scale(3.6666666666667)"><rect width="6" height="6"/></g>
<g transform="translate(902,418) scale(3.6666666666667)"><rect width="6" height="6"/></g>
<g transform="translate(924,418) scale(3.6666666666667)"><rect width="6" height="6"/></g>
<g transform="translate(44,440) scale(3.6666666666667)"><rect width="6" height="6"/></g>
<g transform="translate(66,440) scale(3.6666666666667)"><rect width="6" height="6"/></g>
<g transform="translate(88,440) scale(3.6666666666667)"><rect width="6" height="6"/></g>
<g transform="translate(132,440) scale(3.6666666666667)"><rect width="6" height="6"/></g>
<g transform="translate(176,440) scale(3.6666666666667)"><rect width="6" height="6"/></g>
<g transform="translate(264,440) scale(3.6666666666667)"><rect width="6" height="6"/></g>
<g transform="translate(374,440) scale(3.6666666666667)"><rect width="6" height="6"/></g>
<g transform="translate(396,440) scale(3.6666666666667)"><rect width="6" height="6"/></g>
<g transform="translate(440,440) scale(3.6666666666667)"><rect width="6" height="6"/></g>
<g transform="translate(462,440) scale(3.6666666666667)"><rect width="6" height="6"/></g>
<g transform="translate(484,440) scale(3.6666666666667)"><rect width="6" height="6"/></g>
<g transform="translate(528,440) scale(3.6666666666667)"><rect width="6" height="6"/></g>
<g transform="translate(550,440) scale(3.6666666666667)"><rect width="6" height="6"/></g>
<g transform="translate(572,440) scale(3.6666666666667)"><rect width="6" height="6"/></g>
<g transform="translate(616,440) scale(3.6666666666667)"><rect width="6" height="6"/></g>
<g transform="translate(638,440) scale(3.6666666666667)"><rect width="6" height="6"/></g>
<g transform="translate(660,440) scale(3.6666666666667)"><rect width="6" height="6"/></g>
<g transform="translate(704,440) scale(3.6666666666667)"><rect width="6" height="6"/></g>
<g transform="translate(748,440) scale(3.6666666666667)"><rect width="6" height="6"/></g>
<g transform="translate(770,440) scale(3.6666666666667)"><rect width="6" height="6"/></g>
<g transform="translate(792,440) scale(3.6666666666667)"><rect width="6" height="6"/></g>
<g transform="translate(836,440) scale(3.6666666666667)"><rect width="6" height="6"/></g>
<g transform="translate(902,440) scale(3.6666666666667)"><rect width="6" height="6"/></g>
<g transform="translate(44,462) scale(3.6666666666667)"><rect width="6" height="6"/></g>
<g transform="translate(66,462) scale(3.6666666666667)"><rect width="6" height="6"/></g>
<g transform="translate(88,462) scale(3.6666666666667)"><rect width="6" height="6"/></g>
<g transform="translate(110,462) scale(3.6666666666667)"><rect width="6" height="6"/></g>
<g transform="translate(132,462) scale(3.6666666666667)"><rect width="6" height="6"/></g>
<g transform="translate(154,462) scale(3.6666666666667)"><rect width="6" height="6"/></g>
<g transform="translate(198,462) scale(3.6666666666667)"><rect width="6" height="6"/></g>
<g transform="translate(308,462) scale(3.6666666666667)"><rect width="6" height="6"/></g>
<g transform="translate(330,462) scale(3.6666666666667)"><rect width="6" height="6"/></g>
<g transform="translate(462,462) scale(3.6666666666667)"><rect width="6" height="6"/></g>
<g transform="translate(550,462) scale(3.6666666666667)"><rect width="6" height="6"/></g>
<g transform="translate(572,462) scale(3.6666666666667)"><rect width="6" height="6"/></g>
<g transform="translate(704,462) scale(3.6666666666667)"><rect width="6" height="6"/></g>
<g transform="translate(836,462) scale(3.6666666666667)"><rect width="6" height="6"/></g>
<g transform="translate(924,462) scale(3.6666666666667)"><rect width="6" height="6"/></g>
<g transform="translate(44,484) scale(3.6666666666667)"><rect width="6" height="6"/></g>
<g transform="translate(88,484) scale(3.6666666666667)"><rect width="6" height="6"/></g>
<g transform="translate(132,484) scale(3.6666666666667)"><rect width="6" height="6"/></g>
<g transform="translate(154,484) scale(3.6666666666667)"><rect width="6" height="6"/></g>
<g transform="translate(176,484) scale(3.6666666666667)"><rect width="6" height="6"/></g>
<g transform="translate(220,484) scale(3.6666666666667)"><rect width="6" height="6"/></g>
<g transform="translate(286,484) scale(3.6666666666667)"><rect width="6" height="6"/></g>
<g transform="translate(352,484) scale(3.6666666666667)"><rect width="6" height="6"/></g>
<g transform="translate(396,484) scale(3.6666666666667)"><rect width="6" height="6"/></g>
<g transform="translate(418,484) scale(3.6666666666667)"><rect width="6" height="6"/></g>
<g transform="translate(440,484) scale(3.6666666666667)"><rect width="6" height="6"/></g>
<g transform="translate(506,484) scale(3.6666666666667)"><rect width="6" height="6"/></g>
<g transform="translate(550,484) scale(3.6666666666667)"><rect width="6" height="6"/></g>
<g transform="translate(572,484) scale(3.6666666666667)"><rect width="6" height="6"/></g>
<g transform="translate(638,484) scale(3.6666666666667)"><rect width="6" height="6"/></g>
<g transform="translate(660,484) scale(3.6666666666667)"><rect width="6" height="6"/></g>
<g transform="translate(682,484) scale(3.6666666666667)"><rect width="6" height="6"/></g>
<g transform="translate(704,484) scale(3.6666666666667)"><rect width="6" height="6"/></g>
<g transform="translate(726,484) scale(3.6666666666667)"><rect width="6" height="6"/></g>
<g transform="translate(880,484) scale(3.6666666666667)"><rect width="6" height="6"/></g>
<g transform="translate(902,484) scale(3.6666666666667)"><rect width="6" height="6"/></g>
<g transform="translate(44,506) scale(3.6666666666667)"><rect width="6" height="6"/></g>
<g transform="translate(66,506) scale(3.6666666666667)"><rect width="6" height="6"/></g>
<g transform="translate(88,506) scale(3.6666666666667)"><rect width="6" height="6"/></g>
<g transform="translate(132,506) scale(3.6666666666667)"><rect width="6" height="6"/></g>
<g transform="translate(154,506) scale(3.6666666666667)"><rect width="6" height="6"/></g>
<g transform="translate(242,506) scale(3.6666666666667)"><rect width="6" height="6"/></g>
<g transform="translate(264,506) scale(3.6666666666667)"><rect width="6" height="6"/></g>
<g transform="translate(308,506) scale(3.6666666666667)"><rect width="6" height="6"/></g>
<g transform="translate(330,506) scale(3.6666666666667)"><rect width="6" height="6"/></g>
<g transform="translate(352,506) scale(3.6666666666667)"><rect width="6" height="6"/></g>
<g transform="translate(418,506) scale(3.6666666666667)"><rect width="6" height="6"/></g>
<g transform="translate(440,506) scale(3.6666666666667)"><rect width="6" height="6"/></g>
<g transform="translate(462,506) scale(3.6666666666667)"><rect width="6" height="6"/></g>
<g transform="translate(484,506) scale(3.6666666666667)"><rect width="6" height="6"/></g>
<g transform="translate(506,506) scale(3.6666666666667)"><rect width="6" height="6"/></g>
<g transform="translate(572,506) scale(3.6666666666667)"><rect width="6" height="6"/></g>
<g transform="translate(660,506) scale(3.6666666666667)"><rect width="6" height="6"/></g>
<g transform="translate(704,506) scale(3.6666666666667)"><rect width="6" height="6"/></g>
<g transform="translate(726,506) scale(3.6666666666667)"><rect width="6" height="6"/></g>
<g transform="translate(748,506) scale(3.6666666666667)"><rect width="6" height="6"/></g>
<g transform="translate(770,506) scale(3.6666666666667)"><rect width="6" height="6"/></g>
<g transform="translate(792,506) scale(3.6666666666667)"><rect width="6" height="6"/></g>
<g transform="translate(814,506) scale(3.6666666666667)"><rect width="6" height="6"/></g>
<g transform="translate(836,506) scale(3.6666666666667)"><rect width="6" height="6"/></g>
<g transform="translate(902,506) scale(3.6666666666667)"><rect width="6" height="6"/></g>
<g transform="translate(924,506) scale(3.6666666666667)"><rect width="6" height="6"/></g>
<g transform="translate(66,528) scale(3.6666666666667)"><rect width="6" height="6"/></g>
<g transform="translate(110,528) scale(3.6666666666667)"><rect width="6" height="6"/></g>
<g transform="translate(154,528) scale(3.6666666666667)"><rect width="6" height="6"/></g>
<g transform="translate(176,528) scale(3.6666666666667)"><rect width="6" height="6"/></g>
<g transform="translate(220,528) scale(3.6666666666667)"><rect width="6" height="6"/></g>
<g transform="translate(286,528) scale(3.6666666666667)"><rect width="6" height="6"/></g>
<g transform="translate(308,528) scale(3.6666666666667)"><rect width="6" height="6"/></g>
<g transform="translate(352,528) scale(3.6666666666667)"><rect width="6" height="6"/></g>
<g transform="translate(396,528) scale(3.6666666666667)"><rect width="6" height="6"/></g>
<g transform="translate(418,528) scale(3.6666666666667)"><rect width="6" height="6"/></g>
<g transform="translate(440,528) scale(3.6666666666667)"><rect width="6" height="6"/></g>
<g transform="translate(462,528) scale(3.6666666666667)"><rect width="6" height="6"/></g>
<g transform="translate(484,528) scale(3.6666666666667)"><rect width="6" height="6"/></g>
<g transform="translate(506,528) scale(3.6666666666667)"><rect width="6" height="6"/></g>
<g transform="translate(528,528) scale(3.6666666666667)"><rect width="6" height="6"/></g>
<g transform="translate(550,528) scale(3.6666666666667)"><rect width="6" height="6"/></g>
<g transform="translate(616,528) scale(3.6666666666667)"><rect width="6" height="6"/></g>
<g transform="translate(638,528) scale(3.6666666666667)"><rect width="6" height="6"/></g>
<g transform="translate(660,528) scale(3.6666666666667)"><rect width="6" height="6"/></g>
<g transform="translate(682,528) scale(3.6666666666667)"><rect width="6" height="6"/></g>
<g transform="translate(704,528) scale(3.6666666666667)"><rect width="6" height="6"/></g>
<g transform="translate(748,528) scale(3.6666666666667)"><rect width="6" height="6"/></g>
<g transform="translate(770,528) scale(3.6666666666667)"><rect width="6" height="6"/></g>
<g transform="translate(836,528) scale(3.6666666666667)"><rect width="6" height="6"/></g>
<g transform="translate(858,528) scale(3.6666666666667)"><rect width="6" height="6"/></g>
<g transform="translate(132,550) scale(3.6666666666667)"><rect width="6" height="6"/></g>
<g transform="translate(154,550) scale(3.6666666666667)"><rect width="6" height="6"/></g>
<g transform="translate(220,550) scale(3.6666666666667)"><rect width="6" height="6"/></g>
<g transform="translate(242,550) scale(3.6666666666667)"><rect width="6" height="6"/></g>
<g transform="translate(286,550) scale(3.6666666666667)"><rect width="6" height="6"/></g>
<g transform="translate(440,550) scale(3.6666666666667)"><rect width="6" height="6"/></g>
<g transform="translate(506,550) scale(3.6666666666667)"><rect width="6" height="6"/></g>
<g transform="translate(572,550) scale(3.6666666666667)"><rect width="6" height="6"/></g>
<g transform="translate(594,550) scale(3.6666666666667)"><rect width="6" height="6"/></g>
<g transform="translate(616,550) scale(3.6666666666667)"><rect width="6" height="6"/></g>
<g transform="translate(638,550) scale(3.6666666666667)"><rect width="6" height="6"/></g>
<g transform="translate(660,550) scale(3.6666666666667)"><rect width="6" height="6"/></g>
<g transform="translate(704,550) scale(3.6666666666667)"><rect width="6" height="6"/></g>
<g transform="translate(748,550) scale(3.6666666666667)"><rect width="6" height="6"/></g>
<g transform="translate(814,550) scale(3.6666666666667)"><rect width="6" height="6"/></g>
<g transform="translate(858,550) scale(3.6666666666667)"><rect width="6" height="6"/></g>
<g transform="translate(924,550) scale(3.6666666666667)"><rect width="6" height="6"/></g>
<g transform="translate(66,572) scale(3.6666666666667)"><rect width="6" height="6"/></g>
<g transform="translate(132,572) scale(3.6666666666667)"><rect width="6" height="6"/></g>
<g transform="translate(154,572) scale(3.6666666666667)"><rect width="6" height="6"/></g>
<g transform="translate(176,572) scale(3.6666666666667)"><rect width="6" height="6"/></g>
<g transform="translate(220,572) scale(3.6666666666667)"><rect width="6" height="6"/></g>
<g transform="translate(264,572) scale(3.6666666666667)"><rect width="6" height="6"/></g>
<g transform="translate(286,572) scale(3.6666666666667)"><rect width="6" height="6"/></g>
<g transform="translate(308,572) scale(3.6666666666667)"><rect width="6" height="6"/></g>
<g transform="translate(396,572) scale(3.6666666666667)"><rect width="6" height="6"/></g>
<g transform="translate(440,572) scale(3.6666666666667)"><rect width="6" height="6"/></g>
<g transform="translate(506,572) scale(3.6666666666667)"><rect width="6" height="6"/></g>
<g transform="translate(528,572) scale(3.6666666666667)"><rect width="6" height="6"/></g>
<g transform="translate(550,572) scale(3.6666666666667)"><rect width="6" height="6"/></g>
<g transform="translate(572,572) scale(3.6666666666667)"><rect width="6" height="6"/></g>
<g transform="translate(594,572) scale(3.6666666666667)"><rect width="6" height="6"/></g>
<g transform="translate(616,572) scale(3.6666666666667)"><rect width="6" height="6"/></g>
<g transform="translate(638,572) scale(3.6666666666667)"><rect width="6" height="6"/></g>
<g transform="translate(682,572) scale(3.6666666666667)"><rect width="6" height="6"/></g>
<g transform="translate(880,572) scale(3.6666666666667)"><rect width="6" height="6"/></g>
<g transform="translate(44,594) scale(3.6666666666667)"><rect width="6" height="6"/></g>
<g transform="translate(66,594) scale(3.6666666666667)"><rect width="6" height="6"/></g>
<g transform="translate(132,594) scale(3.6666666666667)"><rect width="6" height="6"/></g>
<g transform="translate(154,594) scale(3.6666666666667)"><rect width="6" height="6"/></g>
<g transform="translate(220,594) scale(3.6666666666667)"><rect width="6" height="6"/></g>
<g transform="translate(242,594) scale(3.6666666666667)"><rect width="6" height="6"/></g>
<g transform="translate(264,594) scale(3.6666666666667)"><rect width="6" height="6"/></g>
<g transform="translate(286,594) scale(3.6666666666667)"><rect width="6" height="6"/></g>
<g transform="translate(308,594) scale(3.6666666666667)"><rect width="6" height="6"/></g>
<g transform="translate(352,594) scale(3.6666666666667)"><rect width="6" height="6"/></g>
<g transform="translate(374,594) scale(3.6666666666667)"><rect width="6" height="6"/></g>
<g transform="translate(396,594) scale(3.6666666666667)"><rect width="6" height="6"/></g>
<g transform="translate(418,594) scale(3.6666666666667)"><rect width="6" height="6"/></g>
<g transform="translate(462,594) scale(3.6666666666667)"><rect width="6" height="6"/></g>
<g transform="translate(528,594) scale(3.6666666666667)"><rect width="6" height="6"/></g>
<g transform="translate(550,594) scale(3.6666666666667)"><rect width="6" height="6"/></g>
<g transform="translate(572,594) scale(3.6666666666667)"><rect width="6" height="6"/></g>
<g transform="translate(594,594) scale(3.6666666666667)"><rect width="6" height="6"/></g>
<g transform="translate(616,594) scale(3.6666666666667)"><rect width="6" height="6"/></g>
<g transform="translate(660,594) scale(3.6666666666667)"><rect width="6" height="6"/></g>
<g transform="translate(682,594) scale(3.6666666666667)"><rect width="6" height="6"/></g>
<g transform="translate(704,594) scale(3.6666666666667)"><rect width="6" height="6"/></g>
<g transform="translate(726,594) scale(3.6666666666667)"><rect width="6" height="6"/></g>
<g transform="translate(770,594) scale(3.6666666666667)"><rect width="6" height="6"/></g>
<g transform="translate(792,594) scale(3.6666666666667)"><rect width="6" height="6"/></g>
<g transform="translate(814,594) scale(3.6666666666667)"><rect width="6" height="6"/></g>
<g transform="translate(836,594) scale(3.6666666666667)"><rect width="6" height="6"/></g>
<g transform="translate(858,594) scale(3.6666666666667)"><rect width="6" height="6"/></g>
<g transform="translate(902,594) scale(3.6666666666667)"><rect width="6" height="6"/></g>
<g transform="translate(924,594) scale(3.6666666666667)"><rect width="6" height="6"/></g>
<g transform="translate(44,616) scale(3.6666666666667)"><rect width="6" height="6"/></g>
<g transform="translate(66,616) scale(3.6666666666667)"><rect width="6" height="6"/></g>
<g transform="translate(88,616) scale(3.6666666666667)"><rect width="6" height="6"/></g>
<g transform="translate(132,616) scale(3.6666666666667)"><rect width="6" height="6"/></g>
<g transform="translate(176,616) scale(3.6666666666667)"><rect width="6" height="6"/></g>
<g transform="translate(198,616) scale(3.6666666666667)"><rect width="6" height="6"/></g>
<g transform="translate(220,616) scale(3.6666666666667)"><rect width="6" height="6"/></g>
<g transform="translate(242,616) scale(3.6666666666667)"><rect width="6" height="6"/></g>
<g transform="translate(286,616) scale(3.6666666666667)"><rect width="6" height="6"/></g>
<g transform="translate(330,616) scale(3.6666666666667)"><rect width="6" height="6"/></g>
<g transform="translate(396,616) scale(3.6666666666667)"><rect width="6" height="6"/></g>
<g transform="translate(418,616) scale(3.6666666666667)"><rect width="6" height="6"/></g>
<g transform="translate(462,616) scale(3.6666666666667)"><rect width="6" height="6"/></g>
<g transform="translate(550,616) scale(3.6666666666667)"><rect width="6" height="6"/></g>
<g transform="translate(638,616) scale(3.6666666666667)"><rect width="6" height="6"/></g>
<g transform="translate(748,616) scale(3.6666666666667)"><rect width="6" height="6"/></g>
<g transform="translate(814,616) scale(3.6666666666667)"><rect width="6" height="6"/></g>
<g transform="translate(836,616) scale(3.6666666666667)"><rect width="6" height="6"/></g>
<g transform="translate(88,638) scale(3.6666666666667)"><rect width="6" height="6"/></g>
<g transform="translate(110,638) scale(3.6666666666667)"><rect width="6" height="6"/></g>
<g transform="translate(132,638) scale(3.6666666666667)"><rect width="6" height="6"/></g>
<g transform="translate(154,638) scale(3.6666666666667)"><rect width="6" height="6"/></g>
<g transform="translate(220,638) scale(3.6666666666667)"><rect width="6" height="6"/></g>
<g transform="translate(242,638) scale(3.6666666666667)"><rect width="6" height="6"/></g>
<g transform="translate(462,638) scale(3.6666666666667)"><rect width="6" height="6"/></g>
<g transform="translate(484,638) scale(3.6666666666667)"><rect width="6" height="6"/></g>
<g transform="translate(550,638) scale(3.6666666666667)"><rect width="6" height="6"/></g>
<g transform="translate(660,638) scale(3.6666666666667)"><rect width="6" height="6"/></g>
<g transform="translate(726,638) scale(3.6666666666667)"><rect width="6" height="6"/></g>
<g transform="translate(748,638) scale(3.6666666666667)"><rect width="6" height="6"/></g>
<g transform="translate(770,638) scale(3.6666666666667)"><rect width="6" height="6"/></g>
<g transform="translate(836,638) scale(3.6666666666667)"><rect width="6" height="6"/></g>
<g transform="translate(858,638) scale(3.6666666666667)"><rect width="6" height="6"/></g>
<g transform="translate(902,638) scale(3.6666666666667)"><rect width="6" height="6"/></g>
<g transform="translate(924,638) scale(3.6666666666667)"><rect width="6" height="6"/></g>
<g transform="translate(66,660) scale(3.6666666666667)"><rect width="6" height="6"/></g>
<g transform="translate(154,660) scale(3.6666666666667)"><rect width="6" height="6"/></g>
<g transform="translate(176,660) scale(3.6666666666667)"><rect width="6" height="6"/></g>
<g transform="translate(198,660) scale(3.6666666666667)"><rect width="6" height="6"/></g>
<g transform="translate(220,660) scale(3.6666666666667)"><rect width="6" height="6"/></g>
<g transform="translate(242,660) scale(3.6666666666667)"><rect width="6" height="6"/></g>
<g transform="translate(308,660) scale(3.6666666666667)"><rect width="6" height="6"/></g>
<g transform="translate(396,660) scale(3.6666666666667)"><rect width="6" height="6"/></g>
<g transform="translate(462,660) scale(3.6666666666667)"><rect width="6" height="6"/></g>
<g transform="translate(550,660) scale(3.6666666666667)"><rect width="6" height="6"/></g>
<g transform="translate(572,660) scale(3.6666666666667)"><rect width="6" height="6"/></g>
<g transform="translate(638,660) scale(3.6666666666667)"><rect width="6" height="6"/></g>
<g transform="translate(682,660) scale(3.6666666666667)"><rect width="6" height="6"/></g>
<g transform="translate(726,660) scale(3.6666666666667)"><rect width="6" height="6"/></g>
<g transform="translate(770,660) scale(3.6666666666667)"><rect width="6" height="6"/></g>
<g transform="translate(858,660) scale(3.6666666666667)"><rect width="6" height="6"/></g>
<g transform="translate(880,660) scale(3.6666666666667)"><rect width="6" height="6"/></g>
<g transform="translate(902,660) scale(3.6666666666667)"><rect width="6" height="6"/></g>
<g transform="translate(44,682) scale(3.6666666666667)"><rect width="6" height="6"/></g>
<g transform="translate(66,682) scale(3.6666666666667)"><rect width="6" height="6"/></g>
<g transform="translate(132,682) scale(3.6666666666667)"><rect width="6" height="6"/></g>
<g transform="translate(154,682) scale(3.6666666666667)"><rect width="6" height="6"/></g>
<g transform="translate(308,682) scale(3.6666666666667)"><rect width="6" height="6"/></g>
<g transform="translate(352,682) scale(3.6666666666667)"><rect width="6" height="6"/></g>
<g transform="translate(374,682) scale(3.6666666666667)"><rect width="6" height="6"/></g>
<g transform="translate(418,682) scale(3.6666666666667)"><rect width="6" height="6"/></g>
<g transform="translate(484,682) scale(3.6666666666667)"><rect width="6" height="6"/></g>
<g transform="translate(506,682) scale(3.6666666666667)"><rect width="6" height="6"/></g>
<g transform="translate(528,682) scale(3.6666666666667)"><rect width="6" height="6"/></g>
<g transform="translate(550,682) scale(3.6666666666667)"><rect width="6" height="6"/></g>
<g transform="translate(616,682) scale(3.6666666666667)"><rect width="6" height="6"/></g>
<g transform="translate(638,682) scale(3.6666666666667)"><rect width="6" height="6"/></g>
<g transform="translate(660,682) scale(3.6666666666667)"><rect width="6" height="6"/></g>
<g transform="translate(726,682) scale(3.6666666666667)"><rect width="6" height="6"/></g>
<g transform="translate(748,682) scale(3.6666666666667)"><rect width="6" height="6"/></g>
<g transform="translate(770,682) scale(3.6666666666667)"><rect width="6" height="6"/></g>
<g transform="translate(792,682) scale(3.6666666666667)"><rect width="6" height="6"/></g>
<g transform="translate(814,682) scale(3.6666666666667)"><rect width="6" height="6"/></g>
<g transform="translate(836,682) scale(3.6666666666667)"><rect width="6" height="6"/></g>
<g transform="translate(924,682) scale(3.6666666666667)"><rect width="6" height="6"/></g>
<g transform="translate(44,704) scale(3.6666666666667)"><rect width="6" height="6"/></g>
<g transform="translate(110,704) scale(3.6666666666667)"><rect width="6" height="6"/></g>
<g transform="translate(132,704) scale(3.6666666666667)"><rect width="6" height="6"/></g>
<g transform="translate(176,704) scale(3.6666666666667)"><rect width="6" height="6"/></g>
<g transform="translate(220,704) scale(3.6666666666667)"><rect width="6" height="6"/></g>
<g transform="translate(264,704) scale(3.6666666666667)"><rect width="6" height="6"/></g>
<g transform="translate(286,704) scale(3.6666666666667)"><rect width="6" height="6"/></g>
<g transform="translate(352,704) scale(3.6666666666667)"><rect width="6" height="6"/></g>
<g transform="translate(374,704) scale(3.6666666666667)"><rect width="6" height="6"/></g>
<g transform="translate(418,704) scale(3.6666666666667)"><rect width="6" height="6"/></g>
<g transform="translate(440,704) scale(3.6666666666667)"><rect width="6" height="6"/></g>
<g transform="translate(462,704) scale(3.6666666666667)"><rect width="6" height="6"/></g>
<g transform="translate(484,704) scale(3.6666666666667)"><rect width="6" height="6"/></g>
<g transform="translate(528,704) scale(3.6666666666667)"><rect width="6" height="6"/></g>
<g transform="translate(572,704) scale(3.6666666666667)"><rect width="6" height="6"/></g>
<g transform="translate(682,704) scale(3.6666666666667)"><rect width="6" height="6"/></g>
<g transform="translate(704,704) scale(3.6666666666667)"><rect width="6" height="6"/></g>
<g transform="translate(770,704) scale(3.6666666666667)"><rect width="6" height="6"/></g>
<g transform="translate(792,704) scale(3.6666666666667)"><rect width="6" height="6"/></g>
<g transform="translate(814,704) scale(3.6666666666667)"><rect width="6" height="6"/></g>
<g transform="translate(858,704) scale(3.6666666666667)"><rect width="6" height="6"/></g>
<g transform="translate(44,726) scale(3.6666666666667)"><rect width="6" height="6"/></g>
<g transform="translate(88,726) scale(3.6666666666667)"><rect width="6" height="6"/></g>
<g transform="translate(110,726) scale(3.6666666666667)"><rect width="6" height="6"/></g>
<g transform="translate(132,726) scale(3.6666666666667)"><rect width="6" height="6"/></g>
<g transform="translate(242,726) scale(3.6666666666667)"><rect width="6" height="6"/></g>
<g transform="translate(264,726) scale(3.6666666666667)"><rect width="6" height="6"/></g>
<g transform="translate(308,726) scale(3.6666666666667)"><rect width="6" height="6"/></g>
<g transform="translate(330,726) scale(3.6666666666667)"><rect width="6" height="6"/></g>
<g transform="translate(374,726) scale(3.6666666666667)"><rect width="6" height="6"/></g>
<g transform="translate(396,726) scale(3.6666666666667)"><rect width="6" height="6"/></g>
<g transform="translate(484,726) scale(3.6666666666667)"><rect width="6" height="6"/></g>
<g transform="translate(506,726) scale(3.6666666666667)"><rect width="6" height="6"/></g>
<g transform="translate(550,726) scale(3.6666666666667)"><rect width="6" height="6"/></g>
<g transform="translate(660,726) scale(3.6666666666667)"><rect width="6" height="6"/></g>
<g transform="translate(726,726) scale(3.6666666666667)"><rect width="6" height="6"/></g>
<g transform="translate(748,726) scale(3.6666666666667)"><rect width="6" height="6"/></g>
<g transform="translate(770,726) scale(3.6666666666667)"><rect width="6" height="6"/></g>
<g transform="translate(792,726) scale(3.6666666666667)"><rect width="6" height="6"/></g>
<g transform="translate(836,726) scale(3.6666666666667)"><rect width="6" height="6"/></g>
<g transform="translate(858,726) scale(3.6666666666667)"><rect width="6" height="6"/></g>
<g transform="translate(924,726) scale(3.6666666666667)"><rect width="6" height="6"/></g>
<g transform="translate(44,748) scale(3.6666666666667)"><rect width="6" height="6"/></g>
<g transform="translate(110,748) scale(3.6666666666667)"><rect width="6" height="6"/></g>
<g transform="translate(132,748) scale(3.6666666666667)"><rect width="6" height="6"/></g>
<g transform="translate(176,748) scale(3.6666666666667)"><rect width="6" height="6"/></g>
<g transform="translate(198,748) scale(3.6666666666667)"><rect width="6" height="6"/></g>
<g transform="translate(220,748) scale(3.6666666666667)"><rect width="6" height="6"/></g>
<g transform="translate(242,748) scale(3.6666666666667)"><rect width="6" height="6"/></g>
<g transform="translate(264,748) scale(3.6666666666667)"><rect width="6" height="6"/></g>
<g transform="translate(308,748) scale(3.6666666666667)"><rect width="6" height="6"/></g>
<g transform="translate(352,748) scale(3.6666666666667)"><rect width="6" height="6"/></g>
<g transform="translate(440,748) scale(3.6666666666667)"><rect width="6" height="6"/></g>
<g transform="translate(484,748) scale(3.6666666666667)"><rect width="6" height="6"/></g>
<g transform="translate(506,748) scale(3.6666666666667)"><rect width="6" height="6"/></g>
<g transform="translate(528,748) scale(3.6666666666667)"><rect width="6" height="6"/></g>
<g transform="translate(550,748) scale(3.6666666666667)"><rect width="6" height="6"/></g>
<g transform="translate(572,748) scale(3.6666666666667)"><rect width="6" height="6"/></g>
<g transform="translate(660,748) scale(3.6666666666667)"><rect width="6" height="6"/></g>
<g transform="translate(682,748) scale(3.6666666666667)"><rect width="6" height="6"/></g>
<g transform="translate(704,748) scale(3.6666666666667)"><rect width="6" height="6"/></g>
<g transform="translate(726,748) scale(3.6666666666667)"><rect width="6" height="6"/></g>
<g transform="translate(748,748) scale(3.6666666666667)"><rect width="6" height="6"/></g>
<g transform="translate(770,748) scale(3.6666666666667)"><rect width="6" height="6"/></g>
<g transform="translate(792,748) scale(3.6666666666667)"><rect width="6" height="6"/></g>
<g transform="translate(814,748) scale(3.6666666666667)"><rect width="6" height="6"/></g>
<g transform="translate(836,748) scale(3.6666666666667)"><rect width="6" height="6"/></g>
<g transform="translate(880,748) scale(3.6666666666667)"><rect width="6" height="6"/></g>
<g transform="translate(924,748) scale(3.6666666666667)"><rect width="6" height="6"/></g>
<g transform="translate(220,770) scale(3.6666666666667)"><rect width="6" height="6"/></g>
<g transform="translate(264,770) scale(3.6666666666667)"><rect width="6" height="6"/></g>
<g transform="translate(330,770) scale(3.6666666666667)"><rect width="6" height="6"/></g>
<g transform="translate(396,770) scale(3.6666666666667)"><rect width="6" height="6"/></g>
<g transform="translate(418,770) scale(3.6666666666667)"><rect width="6" height="6"/></g>
<g transform="translate(440,770) scale(3.6666666666667)"><rect width="6" height="6"/></g>
<g transform="translate(506,770) scale(3.6666666666667)"><rect width="6" height="6"/></g>
<g transform="translate(528,770) scale(3.6666666666667)"><rect width="6" height="6"/></g>
<g transform="translate(572,770) scale(3.6666666666667)"><rect width="6" height="6"/></g>
<g transform="translate(660,770) scale(3.6666666666667)"><rect width="6" height="6"/></g>
<g transform="translate(682,770) scale(3.6666666666667)"><rect width="6" height="6"/></g>
<g transform="translate(704,770) scale(3.6666666666667)"><rect width="6" height="6"/></g>
<g transform="translate(726,770) scale(3.6666666666667)"><rect width="6" height="6"/></g>
<g transform="translate(748,770) scale(3.6666666666667)"><rect width="6" height="6"/></g>
<g transform="translate(836,770) scale(3.6666666666667)"><rect width="6" height="6"/></g>
<g transform="translate(858,770) scale(3.6666666666667)"><rect width="6" height="6"/></g>
<g transform="translate(880,770) scale(3.6666666666667)"><rect width="6" height="6"/></g>
<g transform="translate(902,770) scale(3.6666666666667)"><rect width="6" height="6"/></g>
<g transform="translate(924,770) scale(3.6666666666667)"><rect width="6" height="6"/></g>
<g transform="translate(242,792) scale(3.6666666666667)"><rect width="6" height="6"/></g>
<g transform="translate(308,792) scale(3.6666666666667)"><rect width="6" height="6"/></g>
<g transform="translate(330,792) scale(3.6666666666667)"><rect width="6" height="6"/></g>
<g transform="translate(374,792) scale(3.6666666666667)"><rect width="6" height="6"/></g>
<g transform="translate(418,792) scale(3.6666666666667)"><rect width="6" height="6"/></g>
<g transform="translate(440,792) scale(3.6666666666667)"><rect width="6" height="6"/></g>
<g transform="translate(462,792) scale(3.6666666666667)"><rect width="6" height="6"/></g>
<g transform="translate(484,792) scale(3.6666666666667)"><rect width="6" height="6"/></g>
<g transform="translate(528,792) scale(3.6666666666667)"><rect width="6" height="6"/></g>
<g transform="translate(550,792) scale(3.6666666666667)"><rect width="6" height="6"/></g>
<g transform="translate(594,792) scale(3.6666666666667)"><rect width="6" height="6"/></g>
<g transform="translate(638,792) scale(3.6666666666667)"><rect width="6" height="6"/></g>
<g transform="translate(682,792) scale(3.6666666666667)"><rect width="6" height="6"/></g>
<g transform="translate(726,792) scale(3.6666666666667)"><rect width="6" height="6"/></g>
<g transform="translate(748,792) scale(3.6666666666667)"><rect width="6" height="6"/></g>
<g transform="translate(792,792) scale(3.6666666666667)"><rect width="6" height="6"/></g>
<g transform="translate(836,792) scale(3.6666666666667)"><rect width="6" height="6"/></g>
<g transform="translate(858,792) scale(3.6666666666667)"><rect width="6" height="6"/></g>
<g transform="translate(242,814) scale(3.6666666666667)"><rect width="6" height="6"/></g>
<g transform="translate(308,814) scale(3.6666666666667)"><rect width="6" height="6"/></g>
<g transform="translate(352,814) scale(3.6666666666667)"><rect width="6" height="6"/></g>
<g transform="translate(418,814) scale(3.6666666666667)"><rect width="6" height="6"/></g>
<g transform="translate(440,814) scale(3.6666666666667)"><rect width="6" height="6"/></g>
<g transform="translate(462,814) scale(3.6666666666667)"><rect width="6" height="6"/></g>
<g transform="translate(484,814) scale(3.6666666666667)"><rect width="6" height="6"/></g>
<g transform="translate(506,814) scale(3.6666666666667)"><rect width="6" height="6"/></g>
<g transform="translate(594,814) scale(3.6666666666667)"><rect width="6" height="6"/></g>
<g transform="translate(616,814) scale(3.6666666666667)"><rect width="6" height="6"/></g>
<g transform="translate(660,814) scale(3.6666666666667)"><rect width="6" height="6"/></g>
<g transform="translate(726,814) scale(3.6666666666667)"><rect width="6" height="6"/></g>
<g transform="translate(748,814) scale(3.6666666666667)"><rect width="6" height="6"/></g>
<g transform="translate(836,814) scale(3.6666666666667)"><rect width="6" height="6"/></g>
<g transform="translate(858,814) scale(3.6666666666667)"><rect width="6" height="6"/></g>
<g transform="translate(220,836) scale(3.6666666666667)"><rect width="6" height="6"/></g>
<g transform="translate(242,836) scale(3.6666666666667)"><rect width="6" height="6"/></g>
<g transform="translate(308,836) scale(3.6666666666667)"><rect width="6" height="6"/></g>
<g transform="translate(352,836) scale(3.6666666666667)"><rect width="6" height="6"/></g>
<g transform="translate(374,836) scale(3.6666666666667)"><rect width="6" height="6"/></g>
<g transform="translate(396,836) scale(3.6666666666667)"><rect width="6" height="6"/></g>
<g transform="translate(418,836) scale(3.6666666666667)"><rect width="6" height="6"/></g>
<g transform="translate(440,836) scale(3.6666666666667)"><rect width="6" height="6"/></g>
<g transform="translate(462,836) scale(3.6666666666667)"><rect width="6" height="6"/></g>
<g transform="translate(484,836) scale(3.6666666666667)"><rect width="6" height="6"/></g>
<g transform="translate(506,836) scale(3.6666666666667)"><rect width="6" height="6"/></g>
<g transform="translate(550,836) scale(3.6666666666667)"><rect width="6" height="6"/></g>
<g transform="translate(572,836) scale(3.6666666666667)"><rect width="6" height="6"/></g>
<g transform="translate(594,836) scale(3.6666666666667)"><rect width="6" height="6"/></g>
<g transform="translate(704,836) scale(3.6666666666667)"><rect width="6" height="6"/></g>
<g transform="translate(748,836) scale(3.6666666666667)"><rect width="6" height="6"/></g>
<g transform="translate(770,836) scale(3.6666666666667)"><rect width="6" height="6"/></g>
<g transform="translate(792,836) scale(3.6666666666667)"><rect width="6" height="6"/></g>
<g transform="translate(814,836) scale(3.6666666666667)"><rect width="6" height="6"/></g>
<g transform="translate(836,836) scale(3.6666666666667)"><rect width="6" height="6"/></g>
<g transform="translate(880,836) scale(3.6666666666667)"><rect width="6" height="6"/></g>
<g transform="translate(902,836) scale(3.6666666666667)"><rect width="6" height="6"/></g>
<g transform="translate(924,836) scale(3.6666666666667)"><rect width="6" height="6"/></g>
<g transform="translate(220,858) scale(3.6666666666667)"><rect width="6" height="6"/></g>
<g transform="translate(242,858) scale(3.6666666666667)"><rect width="6" height="6"/></g>
<g transform="translate(264,858) scale(3.6666666666667)"><rect width="6" height="6"/></g>
<g transform="translate(286,858) scale(3.6666666666667)"><rect width="6" height="6"/></g>
<g transform="translate(308,858) scale(3.6666666666667)"><rect width="6" height="6"/></g>
<g transform="translate(330,858) scale(3.6666666666667)"><rect width="6" height="6"/></g>
<g transform="translate(352,858) scale(3.6666666666667)"><rect width="6" height="6"/></g>
<g transform="translate(396,858) scale(3.6666666666667)"><rect width="6" height="6"/></g>
<g transform="translate(418,858) scale(3.6666666666667)"><rect width="6" height="6"/></g>
<g transform="translate(440,858) scale(3.6666666666667)"><rect width="6" height="6"/></g>
<g transform="translate(462,858) scale(3.6666666666667)"><rect width="6" height="6"/></g>
<g transform="translate(506,858) scale(3.6666666666667)"><rect width="6" height="6"/></g>
<g transform="translate(528,858) scale(3.6666666666667)"><rect width="6" height="6"/></g>
<g transform="translate(550,858) scale(3.6666666666667)"><rect width="6" height="6"/></g>
<g transform="translate(572,858) scale(3.6666666666667)"><rect width="6" height="6"/></g>
<g transform="translate(594,858) scale(3.6666666666667)"><rect width="6" height="6"/></g>
<g transform="translate(660,858) scale(3.6666666666667)"><rect width="6" height="6"/></g>
<g transform="translate(704,858) scale(3.6666666666667)"><rect width="6" height="6"/></g>
<g transform="translate(770,858) scale(3.6666666666667)"><rect width="6" height="6"/></g>
<g transform="translate(814,858) scale(3.6666666666667)"><rect width="6" height="6"/></g>
<g transform="translate(858,858) scale(3.6666666666667)"><rect width="6" height="6"/></g>
<g transform="translate(880,858) scale(3.6666666666667)"><rect width="6" height="6"/></g>
<g transform="translate(924,858) scale(3.6666666666667)"><rect width="6" height="6"/></g>
<g transform="translate(220,880) scale(3.6666666666667)"><rect width="6" height="6"/></g>
<g transform="translate(264,880) scale(3.6666666666667)"><rect width="6" height="6"/></g>
<g transform="translate(286,880) scale(3.6666666666667)"><rect width="6" height="6"/></g>
<g transform="translate(330,880) scale(3.6666666666667)"><rect width="6" height="6"/></g>
<g transform="translate(352,880) scale(3.6666666666667)"><rect width="6" height="6"/></g>
<g transform="translate(396,880) scale(3.6666666666667)"><rect width="6" height="6"/></g>
<g transform="translate(418,880) scale(3.6666666666667)"><rect width="6" height="6"/></g>
<g transform="translate(484,880) scale(3.6666666666667)"><rect width="6" height="6"/></g>
<g transform="translate(506,880) scale(3.6666666666667)"><rect width="6" height="6"/></g>
<g transform="translate(528,880) scale(3.6666666666667)"><rect width="6" height="6"/></g>
<g transform="translate(594,880) scale(3.6666666666667)"><rect width="6" height="6"/></g>
<g transform="translate(638,880) scale(3.6666666666667)"><rect width="6" height="6"/></g>
<g transform="translate(704,880) scale(3.6666666666667)"><rect width="6" height="6"/></g>
<g transform="translate(726,880) scale(3.6666666666667)"><rect width="6" height="6"/></g>
<g transform="translate(748,880) scale(3.6666666666667)"><rect width="6" height="6"/></g>
<g transform="translate(770,880) scale(3.6666666666667)"><rect width="6" height="6"/></g>
<g transform="translate(792,880) scale(3.6666666666667)"><rect width="6" height="6"/></g>
<g transform="translate(814,880) scale(3.6666666666667)"><rect width="6" height="6"/></g>
<g transform="translate(836,880) scale(3.6666666666667)"><rect width="6" height="6"/></g>
<g transform="translate(858,880) scale(3.6666666666667)"><rect width="6" height="6"/></g>
<g transform="translate(902,880) scale(3.6666666666667)"><rect width="6" height="6"/></g>
<g transform="translate(242,902) scale(3.6666666666667)"><rect width="6" height="6"/></g>
<g transform="translate(264,902) scale(3.6666666666667)"><rect width="6" height="6"/></g>
<g transform="translate(286,902) scale(3.6666666666667)"><rect width="6" height="6"/></g>
<g transform="translate(330,902) scale(3.6666666666667)"><rect width="6" height="6"/></g>
<g transform="translate(374,902) scale(3.6666666666667)"><rect width="6" height="6"/></g>
<g transform="translate(396,902) scale(3.6666666666667)"><rect width="6" height="6"/></g>
<g transform="translate(440,902) scale(3.6666666666667)"><rect width="6" height="6"/></g>
<g transform="translate(462,902) scale(3.6666666666667)"><rect width="6" height="6"/></g>
<g transform="translate(484,902) scale(3.6666666666667)"><rect width="6" height="6"/></g>
<g transform="translate(506,902) scale(3.6666666666667)"><rect width="6" height="6"/></g>
<g transform="translate(528,902) scale(3.6666666666667)"><rect width="6" height="6"/></g>
<g transform="translate(550,902) scale(3.6666666666667)"><rect width="6" height="6"/></g>
<g transform="translate(594,902) scale(3.6666666666667)"><rect width="6" height="6"/></g>
<g transform="translate(748,902) scale(3.6666666666667)"><rect width="6" height="6"/></g>
<g transform="translate(836,902) scale(3.6666666666667)"><rect width="6" height="6"/></g>
<g transform="translate(858,902) scale(3.6666666666667)"><rect width="6" height="6"/></g>
<g transform="translate(902,902) scale(3.6666666666667)"><rect width="6" height="6"/></g>
<g transform="translate(308,924) scale(3.6666666666667)"><rect width="6" height="6"/></g>
<g transform="translate(330,924) scale(3.6666666666667)"><rect width="6" height="6"/></g>
<g transform="translate(352,924) scale(3.6666666666667)"><rect width="6" height="6"/></g>
<g transform="translate(440,924) scale(3.6666666666667)"><rect width="6" height="6"/></g>
<g transform="translate(528,924) scale(3.6666666666667)"><rect width="6" height="6"/></g>
<g transform="translate(594,924) scale(3.6666666666667)"><rect width="6" height="6"/></g>
<g transform="translate(616,924) scale(3.6666666666667)"><rect width="6" height="6"/></g>
<g transform="translate(638,924) scale(3.6666666666667)"><rect width="6" height="6"/></g>
<g transform="translate(682,924) scale(3.6666666666667)"><rect width="6" height="6"/></g>
<g transform="translate(726,924) scale(3.6666666666667)"><rect width="6" height="6"/></g>
<g transform="translate(770,924) scale(3.6666666666667)"><rect width="6" height="6"/></g>
<g transform="translate(814,924) scale(3.6666666666667)"><rect width="6" height="6"/></g>
<g transform="translate(836,924) scale(3.6666666666667)"><rect width="6" height="6"/></g>
<g transform="translate(880,924) scale(3.6666666666667)"><rect width="6" height="6"/></g>
</g></mask></defs>
<rect width="990" height="990" fill="#ffffff" x="0" y="0" />
<rect x="0" y="0" width="990" height="990" mask="url(#qrmask)" fill="#000000" />
<g transform="translate(44,44)"  fill="#000000"><g transform="scale(11)"><path d="M0,0v14h14V0H0z M12,12H2V2h10V12z"/></g></g>
<g transform="translate(792,44)"  fill="#000000"><g transform="scale(11)"><path d="M0,0v14h14V0H0z M12,12H2V2h10V12z"/></g></g>
<g transform="translate(44,792)"  fill="#000000"><g transform="scale(11)"><path d="M0,0v14h14V0H0z M12,12H2V2h10V12z"/></g></g>
<g transform="translate(88,88)"  fill="#000000"><g transform="scale(11)"><rect width="6" height="6"/></g></g>
<g transform="translate(836,88)"  fill="#000000"><g transform="scale(11)"><rect width="6" height="6"/></g></g>
<g transform="translate(88,836)"  fill="#000000"><g transform="scale(11)"><rect width="6" height="6"/></g></g>
</svg>